HIERARCHY
ROOT hip
{
  OFFSET 0 0 0
  CHANNELS 6 Xposition Yposition Zposition Zrotation Yrotation Xrotation
  JOINT abdomen
  {
    OFFSET 0 20.6881 -0.73152
    CHANNELS 3 Zrotation Xrotation Yrotation
    JOINT chest
    {
      OFFSET 0 11.7043 -0.48768
      CHANNELS 3 Zrotation Xrotation Yrotation
      JOINT neck
      {
        OFFSET 0 22.1894 -2.19456
        CHANNELS 3 Zrotation Xrotation Yrotation
        JOINT head
        {
          OFFSET -0.24384 7.07133 1.2192
          CHANNELS 3 Zrotation Xrotation Yrotation
          JOINT leftEye
          {
            OFFSET 4.14528 8.04674 8.04672
            CHANNELS 3 Zrotation Xrotation Yrotation
            End Site
            {
              OFFSET 1 0 0
            }
          }
          JOINT rightEye
          {
            OFFSET -3.6576 8.04674 8.04672
            CHANNELS 3 Zrotation Xrotation Yrotation
            End Site
            {
              OFFSET 1 0 0
            }
          }
        }
      }
      JOINT rCollar
      {
        OFFSET -2.68224 19.2634 -4.8768
        CHANNELS 3 Zrotation Xrotation Yrotation
        JOINT rShldr
        {
          OFFSET -8.77824 -1.95073 1.46304
          CHANNELS 3 Zrotation Xrotation Yrotation
          JOINT rForeArm
          {
            OFFSET -28.1742 -1.7115 0.48768
            CHANNELS 3 Zrotation Xrotation Yrotation
            JOINT rHand
            {
              OFFSET -22.5879 0.773209 7.07136
              CHANNELS 3 Zrotation Xrotation Yrotation
              JOINT rThumb1
              {
                OFFSET -1.2192 -0.487915 3.41376
                CHANNELS 3 Zrotation Xrotation Yrotation
                JOINT rThumb2
                {
                  OFFSET -3.37035 -0.52449 3.41376
                  CHANNELS 3 Zrotation Xrotation Yrotation
                  End Site
                  {
                    OFFSET -1.78271 -1.18214 1.43049
                  }
                }
              }
              JOINT rIndex1
              {
                OFFSET -7.75947 0.938293 5.60832
                CHANNELS 3 Zrotation Xrotation Yrotation
                JOINT rIndex2
                {
                  OFFSET -2.54057 -0.884171 1.56538
                  CHANNELS 3 Zrotation Xrotation Yrotation
                  End Site
                  {
                    OFFSET -1.62519 -0.234802 1.16502
                  }
                }
              }
              JOINT rMid1
              {
                OFFSET -8.24714 1.18213 3.41376
                CHANNELS 3 Zrotation Xrotation Yrotation
                JOINT rMid2
                {
                  OFFSET -3.10165 -0.590103 1.0647
                  CHANNELS 3 Zrotation Xrotation Yrotation
                  End Site
                  {
                    OFFSET -2.48547 -0.328903 0.83742
                  }
                }
              }
              JOINT rRing1
              {
                OFFSET -8.82822 0.546677 1.51678
                CHANNELS 3 Zrotation Xrotation Yrotation
                JOINT rRing2
                {
                  OFFSET -2.60934 -0.819778 -0.0198488
                  CHANNELS 3 Zrotation Xrotation Yrotation
                  End Site
                  {
                    OFFSET -2.33842 -0.294052 0.168128
                  }
                }
              }
              JOINT rPinky1
              {
                OFFSET -8.27202 -0.0477905 -0.4584
                CHANNELS 3 Zrotation Xrotation Yrotation
                JOINT rPinky2
                {
                  OFFSET -1.82734 -0.647385 -0.700984
                  CHANNELS 3 Zrotation Xrotation Yrotation
                  End Site
                  {
                    OFFSET -1.69225 -0.51767 -0.607171
                  }
                }
              }
            }
          }
        }
      }
      JOINT lCollar
      {
        OFFSET 2.68224 19.2634 -4.8768
        CHANNELS 3 Zrotation Xrotation Yrotation
        JOINT lShldr
        {
          OFFSET 8.77824 -1.95073 1.46304
          CHANNELS 3 Zrotation Xrotation Yrotation
          JOINT lForeArm
          {
            OFFSET 28.1742 -1.7115 0.48768
            CHANNELS 3 Zrotation Xrotation Yrotation
            JOINT lHand
            {
              OFFSET 22.5879 0.773209 7.07136
              CHANNELS 3 Zrotation Xrotation Yrotation
              JOINT lThumb1
              {
                OFFSET 1.2192 -0.487915 3.41376
                CHANNELS 3 Zrotation Xrotation Yrotation
                JOINT lThumb2
                {
                  OFFSET 3.37035 -0.52449 3.41376
                  CHANNELS 3 Zrotation Xrotation Yrotation
                  End Site
                  {
                    OFFSET 1.78271 -1.18214 1.43049
                  }
                }
              }
              JOINT lIndex1
              {
                OFFSET 7.75947 0.938293 5.60832
                CHANNELS 3 Zrotation Xrotation Yrotation
                JOINT lIndex2
                {
                  OFFSET 2.54057 -0.884171 1.56538
                  CHANNELS 3 Zrotation Xrotation Yrotation
                  End Site
                  {
                    OFFSET 1.62519 -0.234802 1.16502
                  }
                }
              }
              JOINT lMid1
              {
                OFFSET 8.24714 1.18213 3.41376
                CHANNELS 3 Zrotation Xrotation Yrotation
                JOINT lMid2
                {
                  OFFSET 3.10165 -0.590103 1.0647
                  CHANNELS 3 Zrotation Xrotation Yrotation
                  End Site
                  {
                    OFFSET 2.48547 -0.328903 0.83742
                  }
                }
              }
              JOINT lRing1
              {
                OFFSET 8.82822 0.546677 1.51678
                CHANNELS 3 Zrotation Xrotation Yrotation
                JOINT lRing2
                {
                  OFFSET 2.60934 -0.819778 -0.0198488
                  CHANNELS 3 Zrotation Xrotation Yrotation
                  End Site
                  {
                    OFFSET 2.33842 -0.294052 0.168128
                  }
                }
              }
              JOINT lPinky1
              {
                OFFSET 8.27202 -0.0477905 -0.4584
                CHANNELS 3 Zrotation Xrotation Yrotation
                JOINT lPinky2
                {
                  OFFSET 1.82734 -0.647385 -0.700984
                  CHANNELS 3 Zrotation Xrotation Yrotation
                  End Site
                  {
                    OFFSET 1.69225 -0.51767 -0.607171
                  }
                }
              }
            }
          }
        }
      }
    }
  }
  JOINT rButtock
  {
    OFFSET -8.77824 4.35084 1.2192
    CHANNELS 3 Zrotation Xrotation Yrotation
    JOINT rThigh
    {
      OFFSET 0 -1.70687 -2.19456
      CHANNELS 3 Zrotation Xrotation Yrotation
      JOINT rShin
      {
        OFFSET 0 -36.8199 0.73152
        CHANNELS 3 Zrotation Xrotation Yrotation
        JOINT rFoot
        {
          OFFSET 0.73152 -45.1104 -5.12064
          CHANNELS 3 Zrotation Xrotation Yrotation
          End Site
          {
            OFFSET -1.1221 -3.69964 12.103
          }
        }
      }
    }
  }
  JOINT lButtock
  {
    OFFSET 8.77824 4.35084 1.2192
    CHANNELS 3 Zrotation Xrotation Yrotation
    JOINT lThigh
    {
      OFFSET 0 -1.70687 -2.19456
      CHANNELS 3 Zrotation Xrotation Yrotation
      JOINT lShin
      {
        OFFSET 0 -36.8199 0.73152
        CHANNELS 3 Zrotation Xrotation Yrotation
        JOINT lFoot
        {
          OFFSET -0.73152 -45.1104 -5.12064
          CHANNELS 3 Zrotation Xrotation Yrotation
          End Site
          {
            OFFSET 1.1221 -3.69964 12.103
          }
        }
      }
    }
  }
}
MOTION
Frames:	5
Frame Time:	0.00833333
-42.8932 68.6479 50.6429 1.4551 -2.0522 7.3975 -11.5107 29.5349 9.88622 -4.03702 -6.10895 1.60865 -10.6573 2.8389 0.833823 5.24678 -21.7042 5.17873 -0.0 0.0 0.0 -0.0 0.0 0.0 9.46586e-14 6.68097e-14 6.4605e-15 59.3438 16.8047 22.8575 21.2396 -52.3262 -111.113 -0.0884979 -8.45548 -1.19713 2.3374e-09 3.62922e-09 -1.39077e-09 4.06668e-09 6.35968e-09 -2.4037e-09 2.33741e-09 3.62923e-09 -1.39078e-09 7.73091 5.47488 0.417314 2.3374e-09 3.62923e-09 -1.39077e-09 2.90554 0.965183 0.102902 2.33741e-09 3.62922e-09 -1.39077e-09 10.2786 0.731801 0.0259123 2.3374e-09 3.62922e-09 -1.39076e-09 2.22167 -0.733487 -0.20892 9.45909e-14 6.67732e-14 6.26172e-15 -52.5744 2.22777 -51.8624 -21.9538 -51.6674 109.23 0.0596678 -6.95332 0.9821 -6.88625e-10 -1.60364e-09 2.9814e-09 -1.20939e-09 -2.76429e-09 5.16345e-09 -6.88632e-10 -1.60364e-09 2.98141e-09 -7.73091 5.47488 -0.417314 -6.88618e-10 -1.60364e-09 2.98139e-09 -2.90554 0.965183 -0.102902 -6.88634e-10 -1.60364e-09 2.9814e-09 -10.2786 0.731801 -0.0259123 -6.88622e-10 -1.60364e-09 2.98139e-09 -2.22167 -0.733487 0.20892 -2.03217e-16 0.0 -3.88251e-19 -14.402 -28.7199 -16.7112 -3.16056 75.5126 3.69463 -7.17643 -24.0391 -13.0703 2.03217e-16 0.0 3.88251e-19 31.3959 -50.5993 11.0215 0.856637 55.0607 -0.881212 -1.3839 1.00057 -16.3428
-43.2143 68.6854 51.2301 1.4575 -1.0792 6.8913 -11.2866 29.4332 9.06546 -3.74108 -6.2025 1.40978 -10.4841 2.86769 0.863126 5.85869 -21.2867 5.27675 -0.0 0.0 0.0 -0.0 0.0 0.0 8.69977e-14 5.80088e-14 1.7389e-14 59.3069 16.0928 21.8823 21.0841 -52.4661 -111.513 -0.0968039 -8.88048 -1.25811 2.1874e-09 3.41331e-09 -1.32826e-09 3.8053e-09 5.98024e-09 -2.29529e-09 2.18741e-09 3.41332e-09 -1.32828e-09 7.73091 5.47488 0.417314 2.1874e-09 3.41332e-09 -1.32826e-09 2.90554 0.965183 0.102902 2.18741e-09 3.41331e-09 -1.32826e-09 10.2786 0.731801 0.0259123 2.18739e-09 3.41331e-09 -1.32826e-09 2.22167 -0.733487 -0.20892 8.69075e-14 5.79813e-14 1.71949e-14 -52.8644 2.77353 -51.216 -21.8628 -51.7512 109.474 0.0610783 -7.03616 0.993915 -5.04865e-10 -1.49336e-09 2.62995e-09 -8.88855e-10 -2.57522e-09 4.55493e-09 -5.0487e-10 -1.49336e-09 2.62996e-09 -7.73091 5.47488 -0.417314 -5.04858e-10 -1.49336e-09 2.62994e-09 -2.90554 0.965183 -0.102902 -5.04873e-10 -1.49336e-09 2.62995e-09 -10.2786 0.731801 -0.0259123 -5.04861e-10 -1.49336e-09 2.62994e-09 -2.22167 -0.733487 0.20892 -2.03217e-16 0.0 -3.88251e-19 -14.9932 -28.2512 -18.0935 -3.44303 76.3403 3.91017 -5.86585 -23.506 -10.7765 2.03217e-16 0.0 3.88251e-19 30.4821 -50.2584 8.61563 0.833964 54.5241 -0.827826 -1.67974 0.0289032 -16.2831
-43.5149 68.6726 51.7103 1.3556 0.256 6.753 -10.9323 29.1677 7.9608 -3.51769 -6.18422 1.15025 -10.2499 2.92942 0.796735 6.67465 -20.8109 5.19485 -0.0 0.0 0.0 -0.0 0.0 0.0 6.1439e-14 3.2207e-14 2.53388e-14 59.677 15.1362 20.6809 20.781 -52.7252 -112.283 -0.11164 -9.54226 -1.35351 1.48782e-09 2.34605e-09 -9.06833e-10 2.58729e-09 4.10741e-09 -1.56638e-09 1.48783e-09 2.34606e-09 -9.06849e-10 7.73091 5.47488 0.417314 1.48782e-09 2.34606e-09 -9.06832e-10 2.90554 0.965183 0.102902 1.48782e-09 2.34605e-09 -9.06832e-10 10.2786 0.731801 0.0259123 1.48781e-09 2.34605e-09 -9.06829e-10 2.22167 -0.733487 -0.20892 6.13146e-14 3.21979e-14 2.51463e-14 -53.0024 3.42473 -50.7243 -21.8322 -51.7804 109.555 0.0631191 -7.15262 1.01054 -1.29045e-10 -9.97466e-10 1.53891e-09 -2.31453e-10 -1.72177e-09 2.66572e-09 -1.29047e-10 -9.97465e-10 1.53892e-09 -7.73091 5.47488 -0.417314 -1.29039e-10 -9.97463e-10 1.53891e-09 -2.90554 0.965183 -0.102902 -1.29052e-10 -9.97465e-10 1.53891e-09 -10.2786 0.731801 -0.0259123 -1.29041e-10 -9.97464e-10 1.53891e-09 -2.22167 -0.733487 0.20892 -2.03217e-16 0.0 -3.88251e-19 -15.829 -27.6358 -19.8303 -3.70424 76.9933 4.09341 -4.52723 -22.8893 -8.35387 2.03217e-16 0.0 3.88251e-19 29.0632 -50.0463 5.61309 0.800499 53.6874 -0.755574 -1.93597 -0.793059 -16.3018
-43.9084 68.6631 52.1179 0.9185 1.7355 6.7086 -10.5682 28.8247 6.85007 -3.30562 -6.12203 0.894075 -9.98595 3.00166 0.667162 7.53197 -20.3956 4.99008 -0.0 0.0 0.0 -0.0 0.0 0.0 3.44124e-14 -1.54599e-16 2.46446e-14 60.2072 14.0536 19.3464 20.3964 -53.0378 -113.243 -0.12769 -10.1648 -1.44377 6.392e-10 1.12636e-09 -3.18624e-10 1.10931e-09 1.96419e-09 -5.48901e-10 6.39211e-10 1.12637e-09 -3.18645e-10 7.73091 5.47488 0.417314 6.39199e-10 1.12637e-09 -3.18624e-10 2.90554 0.965183 0.102902 6.39206e-10 1.12636e-09 -3.18624e-10 10.2786 0.731801 0.0259123 6.39195e-10 1.12637e-09 -3.18619e-10 2.22167 -0.733487 -0.20892 3.42575e-14 -1.45337e-16 2.44505e-14 -53.0973 4.069 -50.3413 -21.8379 -51.7769 109.54 0.0653571 -7.27653 1.02824 2.64469e-10 -3.91375e-10 2.77642e-10 4.57511e-10 -6.78138e-10 4.81642e-10 2.6447e-10 -3.91371e-10 2.77654e-10 -7.73091 5.47488 -0.417314 2.64474e-10 -3.91367e-10 2.77646e-10 -2.90554 0.965183 -0.102902 2.64464e-10 -3.91369e-10 2.77644e-10 -10.2786 0.731801 -0.0259123 2.64474e-10 -3.91367e-10 2.77637e-10 -2.22167 -0.733487 0.20892 -2.03217e-16 0.0 -3.88251e-19 -16.7097 -27.1415 -21.5907 -3.97031 77.5849 4.27921 -3.04836 -21.7483 -5.63802 2.03217e-16 0.0 3.88251e-19 27.5698 -49.8366 2.52663 0.762864 52.692 -0.680736 -2.11919 -1.37542 -16.3056
-44.342 68.731 52.5056 0.4902 3.0891 6.6935 -10.3003 28.5002 6.00421 -3.04492 -6.08396 0.705091 -9.72368 3.06198 0.506924 8.26422 -20.1599 4.71783 -0.0 0.0 0.0 -0.0 0.0 0.0 2.23476e-14 -2.86351e-14 9.64106e-15 60.6669 12.9718 17.964 20.005 -53.3449 -114.202 -0.13642 -10.4721 -1.48854 4.20883e-11 4.53169e-10 2.44213e-10 6.80106e-11 7.73578e-10 4.2521e-10 4.20998e-11 4.53176e-10 2.4419e-10 7.73091 5.47488 0.417314 4.20859e-11 4.53171e-10 2.44213e-10 2.90554 0.965183 0.102902 4.20938e-11 4.53171e-10 2.44213e-10 10.2786 0.731801 0.0259123 4.20833e-11 4.53172e-10 2.44219e-10 2.22167 -0.733487 -0.20892 2.21816e-14 -2.86168e-14 9.44227e-15 -53.2562 4.59184 -50.0153 -21.8549 -51.762 109.495 0.0673003 -7.38175 1.04327 5.01313e-10 4.94958e-11 -5.84526e-10 8.72726e-10 8.14445e-11 -1.01148e-09 5.01316e-10 4.95029e-11 -5.84513e-10 -7.73091 5.47488 -0.417314 5.01317e-10 4.95065e-11 -5.84519e-10 -2.90554 0.965183 -0.102902 5.01308e-10 4.95055e-11 -5.84522e-10 -10.2786 0.731801 -0.0259123 5.01317e-10 4.95065e-11 -5.84529e-10 -2.22167 -0.733487 0.20892 -2.03217e-16 0.0 -3.88251e-19 -17.4785 -27.042 -23.0638 -4.28259 78.2283 4.51759 -1.43167 -19.6255 -2.50899 2.03217e-16 0.0 3.88251e-19 26.4466 -49.5545 -0.117279 0.725042 51.6793 -0.61733 -2.19206 -1.62943 -16.2004
